<?xml version="1.0" encoding="UTF-8"?>
<svg id="svg1" xmlns="http://www.w3.org/2000/svg" xmlns:svg="http://www.w3.org/2000/svg" xmlns:sodipodi="http://sodipodi.sourceforge.net/DTD/sodipodi-0.dtd" xmlns:inkscape="http://www.inkscape.org/namespaces/inkscape" version="1.1" viewBox="0 0 32 32">
  <!-- Generator: Adobe Illustrator 29.5.0, SVG Export Plug-In . SVG Version: 2.1.0 Build 137)  -->
  <sodipodi:namedview id="namedview1" bordercolor="#000000" borderopacity="0.25" inkscape:current-layer="svg1" inkscape:cx="-25.757338" inkscape:cy="43.852683" inkscape:deskcolor="#d1d1d1" inkscape:pagecheckerboard="0" inkscape:pageopacity="0.0" inkscape:showpageshadow="2" inkscape:window-height="890" inkscape:window-maximized="1" inkscape:window-width="1472" inkscape:window-x="0" inkscape:window-y="38" inkscape:zoom="3.0670871" pagecolor="#ffffff"/>
  <circle id="circle1" cx="16" cy="16" r="15" fill="#2563eb"/>
  <path id="path1-2" d="M15.9,8.4c4.8-.1,7.9,5,5.5,9.2-.8,1.5-2.1,2.1-2.1,4,0,.8.2,2.3-.3,2.9-.2.3-.5.3-.7.5s-.2.4-.4.5c-1,1.1-2.8,1.1-3.8,0-1-1.2-.3-.4-.3-.5,0,0-.3,0-.3-.1-.5-.2-.7-.7-.7-1.1,0-1,.2-2.2-.1-3.1-.3-.9-1.2-1.8-1.8-2.7-2.7-4.1.3-9.4,5.1-9.6h0ZM18.5,22.1c0,0,0-.2,0-.2h-4.8c0,0-.1.1-.1.2,0,.2,0,.4,0,.6h0c0,0,5-.6,5-.6ZM13.4,23.7c0,0,0,.2,0,.3.1.2.5.3.7.3l4.2-.6c0,0,0-.5,0-.6s0,0,0,0l-5,.7h0ZM17.6,24.6l-2.9.4c.8.9,2.3.7,2.9-.4Z" sodipodi:nodetypes="ccccscssccsccccsscccscccccccccccccccccccscccccc" fill="#fff"/>
  <path id="path2" d="M23.5,15.9c0,0,.1,0,.2,0,.6.2,1.4.3,2,.6.4.2.3.8-.2.7l-2.1-.6c-.3-.2-.2-.7.2-.7Z" fill="#fff"/>
  <path id="path3" d="M8.4,15.9c.4,0,.5.5.2.7l-2.1.6c-.5,0-.6-.6-.2-.7l2.1-.6h0Z" fill="#fff"/>
  <path id="path4" d="M6.4,11c.1,0,.2,0,.3,0,.6.2,1.3.5,2,.6.4.2.2.8-.3.7l-2.1-.7c-.3-.1-.3-.6,0-.7Z" fill="#fff"/>
  <path id="path5" d="M25.3,11c.5,0,.6.4.3.7l-2.1.7c-.5,0-.6-.5-.3-.7l2.1-.7Z" fill="#fff"/>
  <path id="path6" d="M15.8,4.9c.3,0,.5,0,.5.3,0,.6,0,1.4,0,2,0,.5-.7.5-.8,0,0-.7,0-1.5,0-2.1,0,0,.2-.3.2-.3Z" fill="#fff"/>
  <path id="path7" d="M9.9,6.4c.1,0,.3,0,.4,0l1.4,1.6c.2.4-.2.7-.6.5l-1.4-1.7c-.2-.2,0-.5.2-.6h0Z" fill="#fff"/>
  <path id="path8" d="M22,6.4c.3,0,.5.3.3.6-.4.5-.7.9-1.1,1.4-.4.5-.3.5-.6.3s-.3-.3-.2-.6c.3-.5,1-1.1,1.3-1.6,0,0,.2-.1.3-.1h0Z" fill="#fff"/>
  <path id="path9" d="M15.5,16.9v-1.8c0,0-.5-.2-.6-.2-1-.3-1.4-1-1.3-2,.1-1.1.6-1.2,1.1-1.4s.7-.2.7-.2c.1-.1,0-.6.2-.7s.6,0,.7,0c.2.2,0,.5.1.7s.5.2.6.2c.4.2.8.5,1,.9s.5.8,0,.9-.6,0-.8,0c-.2,0-.2-.3-.4-.4s-.3-.3-.5-.4c0,0,0,0,0,0,0,.4,0,1,0,1.4,0,.4,0,.2,0,.3,0,0,.6.2.7.2.9.3,1.4.9,1.4,1.9s-1.1,1.7-2,1.9c0,.2,0,.6-.1.8s-.6.1-.8,0,0-.6-.2-.8c-.3,0-.5-.1-.8-.3-.5-.2-.9-.6-1.1-1.1s-.3-.7.1-.8c.4,0,.6,0,.8,0s.2.3.3.5c.2.3.4.5.7.5h0ZM15.5,12.4c-.3,0-.7.3-.7.6-.1.5.2.9.7.9v-1.5ZM16.5,15.4v1.5s0,0,0,.1h0c.8,0,1.1-1.1.3-1.5-.8-.3-.3-.1-.3-.1s0,0,0,0Z" fill="#2563eb"/>
</svg>